# xmcd
#
# Track frame offsets:
# 150
# 14157
# 19569
# 34905
# 50121
# 64473
# 72717
# 77073
# 84909
# 90825
# 92325
# 113061
# 120025
# 123781
# 129571
# 137480
# 141035
# 146015
# 153101
# 158045
# 164243
# 171095
# 175703
# 180905
# 185111
# 189749
# 195185
# 199295
# 204323
# 210089
# 223217
# 248513
# 273852
# 290280
# 312033
# 317045
# 335142
# 343402
#
# Disc length: 4774 seconds
#
#
# Revision: 1
# Processed by: cddbd v1.5.2PL0 Copyright (c) Steve Scherf et al.
# Submitted via: FreeRIP 2.942 
#
DISCID=1f12a426
DTITLE=Kevin Bowyer - Volume 16
DYEAR=2001
DGENRE=Organ
TTITLE0=Prelude in A minor. BWV 543a/i
TTITLE1=Prelude and Fugue in G minor, BWV 535a - I. Prelude
TTITLE2=Prelude and Fugue in G minor, BWV 535a - II. Fugue
TTITLE3=Valet will ich dir geben, BWV 735a
TTITLE4=Christ lag in Todesbanden, BWV 695a
TTITLE5=Pedalexercitium, BWV 598
TTITLE6=Fantasia in C major, BWV 573
TTITLE7=Jesu, meine Freude, BWV 753
TTITLE8=Wie schon leucht uns der Morgenstern, BWV 764
TTITLE9=O Trauerichkeit, O Herzeleid, BWV Anh 200
TTITLE10=Jesu Leiden, Pein und Tod, BWV Anh 57
TTITLE11=18 Stücke für eine Spieluhr - 1a. Fantasia - G major, BWV Anh 133
TTITLE12=18 Stücke für eine Spieluhr - 1b. Scherzo - G major, BWV Anh 134
TTITLE13=18 Stücke für eine Spieluhr - 2a. Bourlesca - A minor, BWV Anh 135
TTITLE14=18 Stücke für eine Spieluhr - 2b. Trio - A minor, BWV Anh 136
TTITLE15=18 Stücke für eine Spieluhr - 3a. L'Intrada della Caccia - E-flat major, BWV Anh 137
TTITLE16=18 Stücke für eine Spieluhr - 3b. Continuazione della Caccia - E-flat major, BWV Anh 138
TTITLE17=18 Stücke für eine Spieluhr - 4a. Il Fine della Caccia - D major, BWV Anh 139
TTITLE18=18 Stücke für eine Spieluhr - 4b. Trio (Il Fine della Caccia) - D minor, BWV Anh 140
TTITLE19=18 Stücke für eine Spieluhr - 5a. Psalm Lied: O Gott die Chtistenheit - F major, BWV Anh 141
TTITLE20=18 Stücke für eine Spieluhr - 5b. Psalm 110 - A minor, BWV Anh 142
TTITLE21=18 Stücke für eine Spieluhr - 6a. Polonaise - E minor, BWV Anh 143
TTITLE22=18 Stücke für eine Spieluhr - 6b. Polonaise Trio - A minor, BWV Anh 144
TTITLE23=18 Stücke für eine Spieluhr - 7a. Marsch - C major, BWV Anh 145
TTITLE24=18 Stücke für eine Spieluhr - 7b. Marsch - F major, BWV Anh 146
TTITLE25=18 Stücke für eine Spieluhr - 8a. La Combattuta - G major, BWV Anh 147
TTITLE26=18 Stücke für eine Spieluhr - 8b. Scherzo - G minor, BWV Anh 148
TTITLE27=18 Stücke für eine Spieluhr - 9a. Menuett - G major, BWV Anh 149
TTITLE28=18 Stücke für eine Spieluhr - 9b. Trio - G minor, BWV Anh 150
TTITLE29=Fugue in B-flat major on BACH, BWV Anh 45
TTITLE30=Toccata in A major, BWV Anh 178
TTITLE31=Drei Ciacone - I. Ciacona in B-flat major, BWV Anh 82
TTITLE32=Drei Ciacone - II. Ciacona in A major, BWV Anh 83
TTITLE33=Drei Ciacone - III. Ciacona in G major, BWV Anh 84
TTITLE34=Prelude and Fugue in B-flat major on BACH, BWV 898 - I. Prelude
TTITLE35=Prelude and Fugue in B-flat major on BACH, BWV 898 - II. Fugue
TTITLE36=Prelude and Fugue in E-flat major, BWV Anh 177 - I. Prelude
TTITLE37=Prelude and Fugue in E-flat major, BWV Anh 177 - II. Fugue
EXTD=Marcussen organ of Sct Hans Kirke, Odense, Denmark
EXTT0=
EXTT1=
EXTT2=
EXTT3=
EXTT4=
EXTT5=
EXTT6=
EXTT7=
EXTT8=
EXTT9=
EXTT10=
EXTT11=
EXTT12=
EXTT13=
EXTT14=
EXTT15=
EXTT16=
EXTT17=
EXTT18=
EXTT19=
EXTT20=
EXTT21=
EXTT22=
EXTT23=
EXTT24=
EXTT25=
EXTT26=
EXTT27=
EXTT28=
EXTT29=
EXTT30=
EXTT31=
EXTT32=
EXTT33=
EXTT34=
EXTT35=
EXTT36=
EXTT37=
PLAYORDER=
